<?xml version="1.0" encoding="UTF-8"?>
<svg xmlns="http://www.w3.org/2000/svg" version="1.1" viewBox="0 0 396 180">
  <!-- Generator: Adobe Illustrator 29.8.3, SVG Export Plug-In . SVG Version: 2.1.1 Build 3)  -->
  <defs>
    <style>
      .st0 {
        stroke-width: 2.5px;
      }

      .st0, .st1, .st2, .st3, .st4 {
        fill: none;
      }

      .st0, .st2, .st4 {
        stroke-linecap: round;
      }

      .st0, .st4 {
        stroke: #010101;
        stroke-linejoin: round;
      }

      .st5 {
        fill: #7b7b7b;
      }

      .st6 {
        fill: #231f20;
      }

      .st1, .st2, .st3, .st7 {
        stroke-miterlimit: 10;
      }

      .st1, .st7 {
        stroke: #231f20;
        stroke-width: 3px;
      }

      .st8, .st7 {
        fill: #fff;
      }

      .st2 {
        stroke: #7c7c7c;
      }

      .st9 {
        opacity: .53;
      }

      .st3 {
        stroke: #fff;
        stroke-width: .5px;
      }

      .st4 {
        stroke-width: 1.6px;
      }

      .st10 {
        fill: #7c7c7c;
      }

      .st11 {
        fill: #dcdbdb;
      }
    </style>
  </defs>
  <g id="background" class="st9">
    <rect class="st11" width="396" height="180"/>
  </g>
  <g id="mouse">
    <path id="grey_fill" class="st10" d="M338.9613,71.9857c.0269,1.4511.0358,2.8036-.009,4.2547-.0358,1.4421-.1164,2.9738-.8957,4.0666-.7882,1.1017-2.2662,1.7646-3.7441,1.7646-1.4869,0-2.9648-.6628-3.7441-1.7646-.7882-1.0928-.8688-2.6245-.9047-4.0666-.0358-1.4511-.0358-2.8036,0-4.2547.0358-1.46.0985-3.0096.8778-4.0845.7882-1.0749,2.2751-1.675,3.771-1.675,1.4869,0,2.9828.6001,3.762,1.675s.8509,2.6245.8868,4.0845Z"/>
    <g id="stripes">
      <line class="st3" x1="326.0356" y1="106.256" x2="342.5851" y2="106.256"/>
      <line class="st3" x1="326.0356" y1="103.5688" x2="342.5851" y2="103.5688"/>
      <line class="st3" x1="326.0356" y1="100.8817" x2="342.5851" y2="100.8817"/>
      <line class="st3" x1="326.0356" y1="98.1945" x2="342.5851" y2="98.1945"/>
      <line class="st3" x1="326.0356" y1="95.5074" x2="342.5851" y2="95.5074"/>
      <line class="st3" x1="326.0356" y1="92.8202" x2="342.5851" y2="92.8202"/>
      <line class="st3" x1="326.0356" y1="90.133" x2="342.5851" y2="90.133"/>
      <line class="st3" x1="326.0356" y1="87.4459" x2="342.5851" y2="87.4459"/>
      <line class="st3" x1="326.0356" y1="84.7587" x2="342.5851" y2="84.7587"/>
      <line class="st3" x1="326.0356" y1="82.0715" x2="342.5851" y2="82.0715"/>
      <line class="st3" x1="325.0356" y1="108.9432" x2="341.5851" y2="108.9432"/>
      <line class="st3" x1="325.0356" y1="111.6303" x2="341.5851" y2="111.6303"/>
      <line class="st3" x1="325.0356" y1="114.3175" x2="341.5851" y2="114.3175"/>
    </g>
    <g id="white_fill">
      <path class="st8" d="M364.6148,71.9857c1.7198,10.7307,1.7198,25.4653.5553,35.4078-1.1644,9.9335-3.4933,15.075-7.9809,19.7686-4.4965,4.7025-11.1517,8.9751-22.8767,8.8676-11.7339.1075-18.3891-4.1651-22.8857-8.8676-4.4876-4.6936-6.8164-9.835-7.9809-19.7686-1.1555-9.9425-1.1555-24.6771.5553-35.4078,2.0243-12.6476,6.4313-19.7238,19.7596-25.9849,6.6821-3.144,14.4121-3.144,21.0942,0,13.3373,6.2611,17.7353,13.3373,19.7596,25.9849ZM338.9524,76.2404c.0448-1.4511.0358-2.8036.009-4.2547-.0358-1.46-.1075-3.0096-.8868-4.0845s-2.2751-1.675-3.762-1.675c-1.4959,0-2.9828.6001-3.771,1.675-.7793,1.0749-.842,2.6245-.8778,4.0845-.0358,1.4511-.0358,2.8036,0,4.2547.0358,1.4421.1164,2.9738.9047,4.0666.7793,1.1017,2.2572,1.7646,3.7441,1.7646,1.4779,0,2.9559-.6628,3.7441-1.7646.7793-1.0928.8599-2.6245.8957-4.0666Z"/>
    </g>
    <g id="outer_outline">
      <path class="st1" d="M323.761,46.0009c6.6821-3.144,14.4121-3.144,21.0942,0,13.3373,6.2611,17.7353,13.3373,19.7596,25.9849,1.7198,10.7307,1.7198,25.4653.5553,35.4078-1.1644,9.9335-3.4933,15.075-7.9809,19.7686-4.4965,4.7025-11.1517,8.9751-22.8767,8.8676-11.7339.1075-18.3891-4.1651-22.8857-8.8676-4.4876-4.6936-6.8164-9.835-7.9809-19.7686-1.1555-9.9425-1.1555-24.6771.5553-35.4078,2.0243-12.6476,6.4313-19.7238,19.7596-25.9849Z"/>
    </g>
    <path id="grey_fill_outline" class="st4" d="M334.3125,66.2262c1.4869,0,2.9828.6001,3.762,1.675s.8509,2.6245.8868,4.0845c.0269,1.4511.0358,2.8036-.009,4.2547-.0358,1.4421-.1164,2.9738-.8957,4.0666-.7882,1.1017-2.2662,1.7646-3.7441,1.7646-1.4869,0-2.9648-.6628-3.7441-1.7646-.7882-1.0928-.8688-2.6245-.9047-4.0666-.0358-1.4511-.0358-2.8036,0-4.2547.0358-1.46.0985-3.0096.8778-4.0845.7882-1.0749,2.2751-1.675,3.771-1.675Z"/>
    <g id="arrow">
      <g id="top_arrow">
        <path class="st0" d="M330.8028,62.9108l.5105-4.3903-5.5803-.7709"/>
      </g>
      <path class="st0" d="M329.3274,87.8558c-13.4829-5.3583-10.5598-26.1249,1.8439-29.1405"/>
    </g>
  </g>
  <g id="CTRL_Key">
    <rect id="outline" class="st7" x="157.5516" y="44.4127" width="88.8148" height="88.8148" rx="12" ry="12"/>
    <g id="CTRL_text">
      <g>
        <path class="st6" d="M180.7532,71.8865l3.8094,1.2081c-.5836,2.1237-1.5552,3.701-2.9135,4.732s-3.0813,1.5465-5.1695,1.5465c-2.5844,0-4.7081-.883-6.3717-2.6479-1.6635-1.7655-2.4953-4.1793-2.4953-7.2407,0-3.2386.8364-5.7537,2.5087-7.546,1.6723-1.7917,3.8711-2.6875,6.5971-2.6875,2.38,0,4.3138.703,5.8003,2.1103.8848.8318,1.5482,2.0264,1.9909,3.584l-3.8892.929c-.2301-1.0088-.71-1.8051-1.4399-2.3893-.7304-.5842-1.6175-.876-2.6613-.876-1.4422,0-2.613.5178-3.5106,1.5529-.8988,1.0356-1.3473,2.7126-1.3473,5.0308,0,2.4598.4421,4.2119,1.3269,5.2557.8848,1.0444,2.0352,1.5663,3.4512,1.5663,1.0444,0,1.9426-.3314,2.6945-.9954.752-.6634,1.2919-1.7072,1.6193-3.1325Z"/>
        <path class="st6" d="M194.3715,64.9451v2.9729h-2.5483v5.6809c0,1.1504.0245,1.8208.0728,2.0107.0489.1905.1596.3477.332.4712.1724.1241.3827.1858.6308.1858.3448,0,.8446-.1194,1.4999-.3582l.318,2.8937c-.8673.3716-1.8494.5574-2.9462.5574-.6728,0-1.2791-.113-1.8185-.3384-.54-.226-.936-.5178-1.1882-.876s-.427-.8428-.5242-1.4533c-.0798-.4339-.1194-1.31-.1194-2.6281v-6.1457h-1.7125v-2.9729h1.7125v-2.8011l3.743-2.1767v4.9778h2.5483Z"/>
        <path class="st6" d="M200.5305,79.041h-3.7302v-14.0959h3.4646v2.0037c.5924-.9465,1.1259-1.5704,1.5995-1.8715.473-.3006,1.0106-.4508,1.6123-.4508.8498,0,1.6682.2342,2.4557.703l-1.1545,3.252c-.6285-.4066-1.2127-.6104-1.7521-.6104-.5225,0-.9646.1439-1.3275.4316s-.6483.8073-.8562,1.5593c-.2079.7526-.3116,2.3276-.3116,4.7256v4.3534Z"/>
        <path class="st6" d="M207.5389,79.041v-19.4587h3.7296v19.4587h-3.7296Z"/>
      </g>
    </g>
    <g id="Layer_11">
      <path id="outline1" data-name="outline" class="st2" d="M250.9853,63.7866v56.659c0,9.5705-7.8304,17.4009-17.4009,17.4009h-56.659"/>
    </g>
  </g>
  <g id="_x2B_">
    <line class="st2" x1="276.2294" y1="78.396" x2="276.2294" y2="99.4261"/>
    <line class="st2" x1="286.7445" y1="88.9111" x2="265.7143" y2="88.9111"/>
  </g>
  <g id="magnifying_glass">
    <g id="Layer_7">
      <path d="M121.1083,127.561v2.2374c-.7672,4.2625-3.7368,7.2691-8.0174,8.0174-.7721-.0688-1.6744.0954-2.4239,0-1.4494-.1844-3.7193-1.3934-4.85-2.3283l-29.0805-29.0945c-15.9474,8.7656-35.8724,3.9198-45.6878-11.3636-13.3056-20.718-.8033-48.535,23.4343-52.2725,24.6905-3.8074,44.9311,18.9665,38.2318,43.0795-.7349,2.645-1.9008,5.1236-3.0294,7.6077l28.9085,28.8937c1.1556,1.3616,2.2972,3.4233,2.5144,5.2233ZM84.4018,76.5495c0-13.5688-10.9997-24.5685-24.5685-24.5685s-24.5685,10.9997-24.5685,24.5685,10.9997,24.5685,24.5685,24.5685,24.5685-10.9997,24.5685-24.5685Z"/>
      <circle class="st8" cx="59.8333" cy="76.5495" r="27.8159"/>
      <g id="Layer_9">
        <path class="st5" d="M44.9859,64.352c1.1087-.1999,2.1567.0904,2.6965,1.1303,1.078,2.0769-.7874,3.1277-1.7911,4.6221-2.5732,3.8311-2.5738,8.8403-.0741,12.7188.9676,1.5013,3.4284,3.1599,1.5582,5.1729-2.0575,2.2145-4.2959-.6409-5.3955-2.2677-3.3269-4.922-3.782-11.0683-1.2101-16.4572.6165-1.2918,2.8093-4.6655,4.2163-4.9192"/>
      </g>
    </g>
  </g>
  <g id="equal">
    <path class="st5" d="M130.7742,80.5555c-.6969,0-1.2958-.2457-1.7963-.7388-.5016-.4925-.7518-1.0869-.7518-1.7838,0-.6963.2502-1.2947.7518-1.7963.5004-.5004,1.0994-.7518,1.7963-.7518.6963,0,1.2953.2514,1.7963.7518.501.5016.7518,1.1.7518,1.7963,0,.6969-.2508,1.2913-.7518,1.7838-.501.4931-1.1.7388-1.7963.7388ZM130.7742,103.514c-.6969,0-1.2958-.2468-1.7963-.7394-.5016-.4925-.7518-1.0869-.7518-1.7833s.2502-1.2953.7518-1.7957c.5004-.5016,1.0994-.7518,1.7963-.7518.6963,0,1.2953.2502,1.7963.7518.501.5004.7518,1.0994.7518,1.7957s-.2508,1.2908-.7518,1.7833-1.1.7394-1.7963.7394Z"/>
  </g>
  <g id="text">
    <g>
      <path class="st6" d="M75.2031,23.376v-5.0508h-1.8867v-.6758h4.5391v.6758h-1.8945v5.0508h-.7578Z"/>
      <path class="st6" d="M77.3945,21.3018c0-.7681.2134-1.3374.6406-1.707.3569-.3071.7915-.4609,1.3047-.4609.5703,0,1.0366.187,1.3984.5605s.543.8901.543,1.5488c0,.5337-.0801.9536-.2402,1.2598s-.3931.5435-.6992.7129-.6401.2539-1.002.2539c-.5806,0-1.0503-.186-1.4082-.5586s-.5371-.9087-.5371-1.6094ZM78.1172,21.3018c0,.5312.1157.9292.3477,1.1934s.5234.3965.875.3965c.3491,0,.6392-.1328.8711-.3984s.3477-.6704.3477-1.2148c0-.5132-.1167-.9019-.3496-1.166s-.5229-.3965-.8691-.3965c-.3516,0-.6431.1313-.875.3945s-.3477.6602-.3477,1.1914Z"/>
      <path class="st6" d="M83.957,23.376v-.5703l2.6406-3.0312c-.2993.0156-.564.0234-.793.0234h-1.6914v-.5703h3.3906v.4648l-2.2461,2.6328-.4336.4805c.3149-.0234.6108-.0352.8867-.0352h1.918v.6055h-3.6719Z"/>
      <path class="st6" d="M88.0664,21.3018c0-.7681.2134-1.3374.6406-1.707.3569-.3071.7915-.4609,1.3047-.4609.5703,0,1.0366.187,1.3984.5605s.543.8901.543,1.5488c0,.5337-.0801.9536-.2402,1.2598s-.3931.5435-.6992.7129-.6401.2539-1.002.2539c-.5806,0-1.0503-.186-1.4082-.5586s-.5371-.9087-.5371-1.6094ZM88.7891,21.3018c0,.5312.1157.9292.3477,1.1934s.5234.3965.875.3965c.3491,0,.6392-.1328.8711-.3984s.3477-.6704.3477-1.2148c0-.5132-.1167-.9019-.3496-1.166s-.5229-.3965-.8691-.3965c-.3516,0-.6431.1313-.875.3945s-.3477.6602-.3477,1.1914Z"/>
      <path class="st6" d="M92.5156,21.3018c0-.7681.2134-1.3374.6406-1.707.3569-.3071.7915-.4609,1.3047-.4609.5703,0,1.0366.187,1.3984.5605s.543.8901.543,1.5488c0,.5337-.0801.9536-.2402,1.2598s-.3931.5435-.6992.7129-.6401.2539-1.002.2539c-.5806,0-1.0503-.186-1.4082-.5586s-.5371-.9087-.5371-1.6094ZM93.2383,21.3018c0,.5312.1157.9292.3477,1.1934s.5234.3965.875.3965c.3491,0,.6392-.1328.8711-.3984s.3477-.6704.3477-1.2148c0-.5132-.1167-.9019-.3496-1.166s-.5229-.3965-.8691-.3965c-.3516,0-.6431.1313-.875.3945s-.3477.6602-.3477,1.1914Z"/>
      <path class="st6" d="M97.2266,23.376v-4.1484h.6289v.582c.1304-.2031.3032-.3667.5195-.4902s.4624-.1855.7383-.1855c.3071,0,.5591.064.7559.1914s.3354.3062.416.5352c.3281-.4844.7554-.7266,1.2812-.7266.4116,0,.728.1138.9492.3418s.332.5786.332,1.0527v2.8477h-.6992v-2.6133c0-.2812-.0229-.4839-.0684-.6074s-.1284-.2231-.248-.2988-.2603-.1133-.4219-.1133c-.2915,0-.5337.0972-.7266.291s-.2891.5044-.2891.9316v2.4102h-.7031v-2.6953c0-.3125-.0571-.5469-.1719-.7031s-.3022-.2344-.5625-.2344c-.1978,0-.3809.0522-.5488.1562s-.2896.2563-.3652.457-.1133.4897-.1133.8672v2.1523h-.7031Z"/>
      <path class="st6" d="M104.0859,20.0283v-.8008h.8008v.8008h-.8008ZM104.0859,23.376v-.8008h.8008v.8008h-.8008Z"/>
      <path class="st6" d="M108.3359,23.376v-5.7266h.7031v2.0547c.3281-.3804.7422-.5703,1.2422-.5703.3071,0,.5742.0605.8008.1816s.3887.2886.4863.502.1465.5234.1465.9297v2.6289h-.7031v-2.6289c0-.3516-.0762-.6074-.2285-.7676s-.3677-.2402-.6465-.2402c-.2085,0-.4043.0542-.5879.1621s-.3145.2544-.3926.4395-.1172.4399-.1172.7656v2.2695h-.7031Z"/>
      <path class="st6" d="M112.5234,21.3018c0-.7681.2134-1.3374.6406-1.707.3569-.3071.7915-.4609,1.3047-.4609.5703,0,1.0366.187,1.3984.5605s.543.8901.543,1.5488c0,.5337-.0801.9536-.2402,1.2598s-.3931.5435-.6992.7129-.6401.2539-1.002.2539c-.5806,0-1.0503-.186-1.4082-.5586s-.5371-.9087-.5371-1.6094ZM113.2461,21.3018c0,.5312.1157.9292.3477,1.1934s.5234.3965.875.3965c.3491,0,.6392-.1328.8711-.3984s.3477-.6704.3477-1.2148c0-.5132-.1167-.9019-.3496-1.166s-.5229-.3965-.8691-.3965c-.3516,0-.6431.1313-.875.3945s-.3477.6602-.3477,1.1914Z"/>
      <path class="st6" d="M117.2188,23.376v-5.7266h.7031v5.7266h-.7031Z"/>
      <path class="st6" d="M121.7031,23.376v-.5234c-.2632.4116-.6499.6172-1.1602.6172-.3306,0-.6348-.0913-.9121-.2734s-.4922-.437-.6445-.7637-.2285-.7026-.2285-1.127c0-.4141.0688-.7896.207-1.127s.3452-.5957.6211-.7754.5845-.2695.9258-.2695c.25,0,.4727.0527.668.1582s.354.2427.4766.4121v-2.0547h.6992v5.7266h-.6523ZM119.4805,21.3057c0,.5312.1118.9282.3359,1.1914s.4883.3945.793.3945c.3071,0,.5684-.1255.7832-.377s.3223-.6348.3223-1.1504c0-.5679-.1094-.9844-.3281-1.25s-.4883-.3984-.8086-.3984c-.3125,0-.5737.1274-.7832.3828s-.3145.6577-.3145,1.207Z"/>
      <path class="st6" d="M127.2188,22.7471l.1016.6211c-.1978.0415-.375.0625-.5312.0625-.2554,0-.4531-.0405-.5938-.1211s-.2397-.187-.2969-.3184-.0859-.4082-.0859-.8301v-2.3867h-.5156v-.5469h.5156v-1.0273l.6992-.4219v1.4492h.707v.5469h-.707v2.4258c0,.2007.0122.3296.0371.3867s.0649.103.1211.1367.1362.0508.2402.0508c.0781,0,.1812-.0093.3086-.0273Z"/>
      <path class="st6" d="M127.9062,23.376v-5.7266h.7031v2.0547c.3281-.3804.7422-.5703,1.2422-.5703.3071,0,.5742.0605.8008.1816s.3887.2886.4863.502.1465.5234.1465.9297v2.6289h-.7031v-2.6289c0-.3516-.0762-.6074-.2285-.7676s-.3677-.2402-.6465-.2402c-.2085,0-.4043.0542-.5879.1621s-.3145.2544-.3926.4395-.1172.4399-.1172.7656v2.2695h-.7031Z"/>
      <path class="st6" d="M135.1953,22.04l.7266.0898c-.1147.4243-.3267.7539-.6367.9883s-.7056.3516-1.1875.3516c-.6069,0-1.0879-.187-1.4434-.5605s-.5332-.8979-.5332-1.5723c0-.6978.1797-1.2397.5391-1.625s.8257-.5781,1.3984-.5781c.5547,0,1.0078.189,1.3594.5664s.5273.9087.5273,1.5938c0,.0415-.0015.104-.0039.1875h-3.0938c.0259.4556.1548.8047.3867,1.0469s.521.3633.8672.3633c.2578,0,.478-.0679.6602-.2031s.3267-.3516.4336-.6484ZM132.8867,20.9033h2.3164c-.0312-.3491-.1196-.6108-.2656-.7852-.2241-.271-.5142-.4062-.8711-.4062-.3228,0-.5942.1079-.8145.3242s-.3418.5054-.3652.8672Z"/>
      <path class="st6" d="M143.2031,21.3682l.7578.1914c-.1587.6226-.4448,1.0972-.8574,1.4238s-.9175.4902-1.5137.4902c-.6172,0-1.1191-.1255-1.5059-.377s-.6812-.6152-.8828-1.0918-.3027-.9883-.3027-1.5352c0-.5962.1138-1.1167.3418-1.5605s.5522-.7812.9727-1.0117.8833-.3457,1.3887-.3457c.5728,0,1.0547.146,1.4453.4375s.6626.7017.8164,1.2305l-.7461.1758c-.1328-.4165-.3257-.7202-.5781-.9102s-.5703-.2852-.9531-.2852c-.4399,0-.8081.1055-1.1035.3164s-.5034.4941-.623.8496-.1797.7222-.1797,1.0996c0,.4868.0708.9121.2129,1.2754s.3628.6348.6621.8145.6235.2695.9727.2695c.4243,0,.7837-.1226,1.0781-.3672s.4937-.6079.5977-1.0898Z"/>
      <path class="st6" d="M146.3398,22.7471l.1016.6211c-.1978.0415-.375.0625-.5312.0625-.2554,0-.4531-.0405-.5938-.1211s-.2397-.187-.2969-.3184-.0859-.4082-.0859-.8301v-2.3867h-.5156v-.5469h.5156v-1.0273l.6992-.4219v1.4492h.707v.5469h-.707v2.4258c0,.2007.0122.3296.0371.3867s.0649.103.1211.1367.1362.0508.2402.0508c.0781,0,.1812-.0093.3086-.0273Z"/>
      <path class="st6" d="M147.0195,23.376v-4.1484h.6328v.6289c.1616-.2944.3105-.4883.4473-.582s.2871-.1406.4512-.1406c.2368,0,.478.0757.7227.2266l-.2422.6523c-.1719-.1016-.3438-.1523-.5156-.1523-.1538,0-.2915.0464-.4141.1387s-.2095.2207-.2617.3848c-.0781.25-.1172.5234-.1172.8203v2.1719h-.7031Z"/>
      <path class="st6" d="M149.6758,23.376v-5.7266h.7031v5.7266h-.7031Z"/>
      <path class="st6" d="M153.6953,23.376v-5.7266h.7031v3.2656l1.6641-1.6875h.9102l-1.5859,1.5391,1.7461,2.6094h-.8672l-1.3711-2.1211-.4961.4766v1.6445h-.7031Z"/>
      <path class="st6" d="M160.5312,22.04l.7266.0898c-.1147.4243-.3267.7539-.6367.9883s-.7056.3516-1.1875.3516c-.6069,0-1.0879-.187-1.4434-.5605s-.5332-.8979-.5332-1.5723c0-.6978.1797-1.2397.5391-1.625s.8257-.5781,1.3984-.5781c.5547,0,1.0078.189,1.3594.5664s.5273.9087.5273,1.5938c0,.0415-.0015.104-.0039.1875h-3.0938c.0259.4556.1548.8047.3867,1.0469s.521.3633.8672.3633c.2578,0,.478-.0679.6602-.2031s.3267-.3516.4336-.6484ZM158.2227,20.9033h2.3164c-.0312-.3491-.1196-.6108-.2656-.7852-.2241-.271-.5142-.4062-.8711-.4062-.3228,0-.5942.1079-.8145.3242s-.3418.5054-.3652.8672Z"/>
      <path class="st6" d="M162.1094,24.9736l-.0781-.6602c.1538.0415.2876.0625.4023.0625.1562,0,.2812-.0259.375-.0781s.1704-.125.2305-.2188c.0444-.0703.1157-.2446.2148-.5234.0132-.0391.0337-.0962.0625-.1719l-1.5742-4.1562h.7578l.8633,2.4023c.1118.3047.2124.625.3008.9609.0806-.3228.1772-.6382.2891-.9453l.8867-2.418h.7031l-1.5781,4.2188c-.1694.4556-.3008.7695-.3945.9414-.125.2319-.2681.4019-.4297.5098s-.354.1621-.5781.1621c-.1353,0-.2866-.0288-.4531-.0859Z"/>
      <path class="st6" d="M165.7305,23.376v-.8008h.8008v.8008c0,.2944-.0522.5317-.1562.7129s-.2695.3208-.4961.4199l-.1953-.3008c.1484-.0649.2578-.1606.3281-.2871s.1094-.3081.1172-.5449h-.3984Z"/>
      <path class="st6" d="M170.7578,23.376l-1.2695-4.1484h.7266l.6602,2.3945.2461.8906c.0103-.0444.082-.3296.2148-.8555l.6602-2.4297h.7227l.6211,2.4062.207.793.2383-.8008.7109-2.3984h.6836l-1.2969,4.1484h-.7305l-.6602-2.4844-.1602-.707-.8398,3.1914h-.7344Z"/>
      <path class="st6" d="M175.7695,23.376v-5.7266h.7031v2.0547c.3281-.3804.7422-.5703,1.2422-.5703.3071,0,.5742.0605.8008.1816s.3887.2886.4863.502.1465.5234.1465.9297v2.6289h-.7031v-2.6289c0-.3516-.0762-.6074-.2285-.7676s-.3677-.2402-.6465-.2402c-.2085,0-.4043.0542-.5879.1621s-.3145.2544-.3926.4395-.1172.4399-.1172.7656v2.2695h-.7031Z"/>
      <path class="st6" d="M180.2227,18.458v-.8086h.7031v.8086h-.7031ZM180.2227,23.376v-4.1484h.7031v4.1484h-.7031Z"/>
      <path class="st6" d="M181.9805,23.376v-5.7266h.7031v5.7266h-.7031Z"/>
      <path class="st6" d="M186.6133,22.04l.7266.0898c-.1147.4243-.3267.7539-.6367.9883s-.7056.3516-1.1875.3516c-.6069,0-1.0879-.187-1.4434-.5605s-.5332-.8979-.5332-1.5723c0-.6978.1797-1.2397.5391-1.625s.8257-.5781,1.3984-.5781c.5547,0,1.0078.189,1.3594.5664s.5273.9087.5273,1.5938c0,.0415-.0015.104-.0039.1875h-3.0938c.0259.4556.1548.8047.3867,1.0469s.521.3633.8672.3633c.2578,0,.478-.0679.6602-.2031s.3267-.3516.4336-.6484ZM184.3047,20.9033h2.3164c-.0312-.3491-.1196-.6108-.2656-.7852-.2241-.271-.5142-.4062-.8711-.4062-.3228,0-.5942.1079-.8145.3242s-.3418.5054-.3652.8672Z"/>
      <path class="st6" d="M190.1641,22.1377l.6953-.1094c.0391.2788.1479.4922.3262.6406s.4277.2227.748.2227c.3228,0,.5625-.0659.7188-.1973s.2344-.2856.2344-.4629c0-.1587-.0688-.2837-.207-.375-.0962-.0625-.3359-.1421-.7188-.2383-.5156-.1304-.873-.2427-1.0723-.3379s-.3501-.2266-.4531-.3945-.1543-.3535-.1543-.5566c0-.1851.0425-.356.127-.5137s.1997-.2886.3457-.3926c.1094-.0806.2583-.1489.4473-.2051s.3911-.084.6074-.084c.3257,0,.6113.0469.8574.1406s.4277.2207.5449.3809.1978.3745.2422.6426l-.6875.0938c-.0312-.2134-.1216-.3804-.2715-.5s-.3613-.1797-.6348-.1797c-.3228,0-.5532.0532-.6914.1602s-.207.2319-.207.375c0,.0913.0288.1733.0859.2461.0571.0757.147.1382.2695.1875.0703.0259.2773.0859.6211.1797.4976.1328.8442.2417,1.041.3262s.3511.2075.4629.3691.168.3618.168.6016c0,.2344-.0684.4551-.2051.6621s-.334.3672-.5918.4805-.5493.1699-.875.1699c-.5391,0-.9497-.1118-1.2324-.3359s-.4629-.5562-.541-.9961Z"/>
      <path class="st6" d="M197.1523,21.8564l.6914.0898c-.0757.4766-.269.8496-.5801,1.1191s-.6934.4043-1.1465.4043c-.5679,0-1.0239-.1855-1.3691-.5566s-.5176-.9028-.5176-1.5957c0-.4478.0742-.8398.2227-1.1758s.3745-.5879.6777-.7559.6333-.252.9902-.252c.4507,0,.8188.1138,1.1055.3418s.4702.5513.5508.9707l-.6836.1055c-.0649-.2788-.1802-.4883-.3457-.6289s-.3652-.2109-.5996-.2109c-.354,0-.6421.127-.8633.3809s-.332.6558-.332,1.2051c0,.5571.1069.9624.3203,1.2148s.4922.3789.8359.3789c.2759,0,.5063-.0845.6914-.2539s.3022-.4297.3516-.7812Z"/>
      <path class="st6" d="M198.4375,23.376v-4.1484h.6328v.6289c.1621-.2944.3105-.4883.4473-.582s.2871-.1406.4512-.1406c.2373,0,.4785.0757.7227.2266l-.2422.6523c-.1719-.1016-.3438-.1523-.5156-.1523-.1533,0-.291.0464-.4141.1387-.1221.0923-.209.2207-.2617.3848-.0781.25-.1172.5234-.1172.8203v2.1719h-.7031Z"/>
      <path class="st6" d="M200.8477,21.3018c0-.7681.2139-1.3374.6406-1.707.3574-.3071.792-.4609,1.3047-.4609.5703,0,1.0371.187,1.3984.5605.3623.3735.543.8901.543,1.5488,0,.5337-.0801.9536-.2402,1.2598s-.3926.5435-.6992.7129c-.3057.1694-.6396.2539-1.002.2539-.5801,0-1.0498-.186-1.4082-.5586-.3574-.3726-.5371-.9087-.5371-1.6094ZM201.5703,21.3018c0,.5312.1162.9292.3477,1.1934.2324.2642.5234.3965.875.3965.3496,0,.6396-.1328.8711-.3984.2324-.2656.3477-.6704.3477-1.2148,0-.5132-.1162-.9019-.3496-1.166-.2324-.2642-.5225-.3965-.8691-.3965-.3516,0-.6426.1313-.875.3945-.2314.2632-.3477.6602-.3477,1.1914Z"/>
      <path class="st6" d="M205.543,23.376v-5.7266h.7031v5.7266h-.7031Z"/>
      <path class="st6" d="M207.3203,23.376v-5.7266h.7031v5.7266h-.7031Z"/>
      <path class="st6" d="M209.1172,18.458v-.8086h.7031v.8086h-.7031ZM209.1172,23.376v-4.1484h.7031v4.1484h-.7031Z"/>
      <path class="st6" d="M210.8906,23.376v-4.1484h.6328v.5898c.3047-.4556.7451-.6836,1.3203-.6836.25,0,.4795.0449.6895.1348s.3662.2075.4707.3535.1768.3188.2188.5195c.0264.1304.0391.3579.0391.6836v2.5508h-.7031v-2.5234c0-.2866-.0273-.5005-.082-.6426s-.1514-.2554-.291-.3398-.3027-.127-.4902-.127c-.2998,0-.5576.0952-.7754.2852s-.3262.5508-.3262,1.082v2.2656h-.7031Z"/>
      <path class="st6" d="M215.2109,23.7197l.6836.1016c.0283.2109.1084.3647.2383.4609.1748.1304.4131.1953.7148.1953.3252,0,.5771-.0649.7539-.1953s.2969-.3125.3594-.5469c.0361-.1431.0537-.4438.0508-.9023-.3076.3618-.6904.543-1.1484.543-.5703,0-1.0117-.2056-1.3242-.6172s-.4688-.9048-.4688-1.4805c0-.396.0713-.7612.2148-1.0957s.3506-.5933.623-.7754.5918-.2734.959-.2734c.4893,0,.8936.1978,1.2109.5938v-.5h.6484v3.5859c0,.646-.0654,1.1035-.1973,1.373s-.3398.4824-.625.6387-.6357.2344-1.0527.2344c-.4951,0-.8945-.1113-1.1992-.334s-.4521-.5581-.4414-1.0059ZM215.793,21.2275c0,.5444.1084.9414.3242,1.1914s.4873.375.8125.375c.3232,0,.5938-.1245.8125-.373s.3281-.6387.3281-1.1699c0-.5078-.1123-.8906-.3379-1.1484s-.4971-.3867-.8145-.3867c-.3125,0-.5781.127-.7969.3809s-.3281.6309-.3281,1.1309Z"/>
      <path class="st6" d="M222.7773,23.376l-1.2695-4.1484h.7266l.6602,2.3945.2461.8906c.0107-.0444.082-.3296.2148-.8555l.6602-2.4297h.7227l.6211,2.4062.207.793.2383-.8008.7109-2.3984h.6836l-1.2969,4.1484h-.7305l-.6602-2.4844-.1602-.707-.8398,3.1914h-.7344Z"/>
      <path class="st6" d="M227.793,18.458v-.8086h.7031v.8086h-.7031ZM227.793,23.376v-4.1484h.7031v4.1484h-.7031Z"/>
      <path class="st6" d="M231.1016,22.7471l.1016.6211c-.1982.0415-.375.0625-.5312.0625-.2549,0-.4531-.0405-.5938-.1211s-.2393-.187-.2969-.3184-.0859-.4082-.0859-.8301v-2.3867h-.5156v-.5469h.5156v-1.0273l.6992-.4219v1.4492h.707v.5469h-.707v2.4258c0,.2007.0127.3296.0371.3867s.0654.103.1211.1367.1357.0508.2402.0508c.0781,0,.1807-.0093.3086-.0273Z"/>
      <path class="st6" d="M231.7891,23.376v-5.7266h.7031v2.0547c.3281-.3804.7422-.5703,1.2422-.5703.3076,0,.5742.0605.8008.1816s.3887.2886.4863.502.1465.5234.1465.9297v2.6289h-.7031v-2.6289c0-.3516-.0762-.6074-.2285-.7676s-.3682-.2402-.6465-.2402c-.208,0-.4043.0542-.5879.1621s-.3145.2544-.3926.4395-.1172.4399-.1172.7656v2.2695h-.7031Z"/>
      <path class="st6" d="M239.9961,22.7471l.1016.6211c-.1982.0415-.375.0625-.5312.0625-.2549,0-.4531-.0405-.5938-.1211s-.2393-.187-.2969-.3184-.0859-.4082-.0859-.8301v-2.3867h-.5156v-.5469h.5156v-1.0273l.6992-.4219v1.4492h.707v.5469h-.707v2.4258c0,.2007.0127.3296.0371.3867s.0654.103.1211.1367.1357.0508.2402.0508c.0781,0,.1807-.0093.3086-.0273Z"/>
      <path class="st6" d="M240.6836,23.376v-5.7266h.7031v2.0547c.3281-.3804.7422-.5703,1.2422-.5703.3076,0,.5742.0605.8008.1816s.3887.2886.4863.502.1465.5234.1465.9297v2.6289h-.7031v-2.6289c0-.3516-.0762-.6074-.2285-.7676s-.3682-.2402-.6465-.2402c-.208,0-.4043.0542-.5879.1621s-.3145.2544-.3926.4395-.1172.4399-.1172.7656v2.2695h-.7031Z"/>
      <path class="st6" d="M247.9727,22.04l.7266.0898c-.1143.4243-.3271.7539-.6367.9883s-.7061.3516-1.1875.3516c-.6064,0-1.0879-.187-1.4434-.5605s-.5332-.8979-.5332-1.5723c0-.6978.1797-1.2397.5391-1.625s.8252-.5781,1.3984-.5781c.5547,0,1.0078.189,1.3594.5664s.5273.9087.5273,1.5938c0,.0415-.001.104-.0039.1875h-3.0938c.0264.4556.1553.8047.3867,1.0469s.5205.3633.8672.3633c.2578,0,.4775-.0679.6602-.2031s.3271-.3516.4336-.6484ZM245.6641,20.9033h2.3164c-.0312-.3491-.1201-.6108-.2656-.7852-.2236-.271-.5146-.4062-.8711-.4062-.3232,0-.5947.1079-.8145.3242s-.3418.5054-.3652.8672Z"/>
      <path class="st6" d="M254.5117,21.8564l.6914.0898c-.0752.4766-.2686.8496-.5801,1.1191s-.6934.4043-1.1465.4043c-.5674,0-1.0244-.1855-1.3691-.5566s-.5176-.9028-.5176-1.5957c0-.4478.0742-.8398.2227-1.1758s.374-.5879.6777-.7559.6338-.252.9902-.252c.4502,0,.8193.1138,1.1055.3418s.4697.5513.5508.9707l-.6836.1055c-.0654-.2788-.1807-.4883-.3457-.6289s-.3652-.2109-.5996-.2109c-.3545,0-.6416.127-.8633.3809s-.332.6558-.332,1.2051c0,.5571.1064.9624.3203,1.2148s.4922.3789.8359.3789c.2764,0,.5068-.0845.6914-.2539s.3018-.4297.3516-.7812Z"/>
      <path class="st6" d="M258.6445,22.04l.7266.0898c-.1143.4243-.3271.7539-.6367.9883s-.7061.3516-1.1875.3516c-.6064,0-1.0879-.187-1.4434-.5605s-.5332-.8979-.5332-1.5723c0-.6978.1797-1.2397.5391-1.625s.8252-.5781,1.3984-.5781c.5547,0,1.0078.189,1.3594.5664s.5273.9087.5273,1.5938c0,.0415-.001.104-.0039.1875h-3.0938c.0264.4556.1553.8047.3867,1.0469s.5205.3633.8672.3633c.2578,0,.4775-.0679.6602-.2031s.3271-.3516.4336-.6484ZM256.3359,20.9033h2.3164c-.0312-.3491-.1201-.6108-.2656-.7852-.2236-.271-.5146-.4062-.8711-.4062-.3232,0-.5947.1079-.8145.3242s-.3418.5054-.3652.8672Z"/>
      <path class="st6" d="M260.2539,23.376v-4.1484h.6328v.5898c.3047-.4556.7451-.6836,1.3203-.6836.25,0,.4795.0449.6895.1348s.3662.2075.4707.3535.1768.3188.2188.5195c.0264.1304.0391.3579.0391.6836v2.5508h-.7031v-2.5234c0-.2866-.0273-.5005-.082-.6426s-.1514-.2554-.291-.3398-.3027-.127-.4902-.127c-.2998,0-.5576.0952-.7754.2852s-.3262.5508-.3262,1.082v2.2656h-.7031Z"/>
      <path class="st6" d="M266.2383,22.7471l.1016.6211c-.1982.0415-.375.0625-.5312.0625-.2549,0-.4531-.0405-.5938-.1211s-.2393-.187-.2969-.3184-.0859-.4082-.0859-.8301v-2.3867h-.5156v-.5469h.5156v-1.0273l.6992-.4219v1.4492h.707v.5469h-.707v2.4258c0,.2007.0127.3296.0371.3867s.0654.103.1211.1367.1357.0508.2402.0508c.0781,0,.1807-.0093.3086-.0273Z"/>
      <path class="st6" d="M269.7656,22.04l.7266.0898c-.1143.4243-.3271.7539-.6367.9883s-.7061.3516-1.1875.3516c-.6064,0-1.0879-.187-1.4434-.5605s-.5332-.8979-.5332-1.5723c0-.6978.1797-1.2397.5391-1.625s.8252-.5781,1.3984-.5781c.5547,0,1.0078.189,1.3594.5664s.5273.9087.5273,1.5938c0,.0415-.001.104-.0039.1875h-3.0938c.0264.4556.1553.8047.3867,1.0469s.5205.3633.8672.3633c.2578,0,.4775-.0679.6602-.2031s.3271-.3516.4336-.6484ZM267.457,20.9033h2.3164c-.0312-.3491-.1201-.6108-.2656-.7852-.2236-.271-.5146-.4062-.8711-.4062-.3232,0-.5947.1079-.8145.3242s-.3418.5054-.3652.8672Z"/>
      <path class="st6" d="M271.3672,23.376v-4.1484h.6328v.6289c.1611-.2944.3105-.4883.4473-.582s.2871-.1406.4512-.1406c.2373,0,.4775.0757.7227.2266l-.2422.6523c-.1719-.1016-.3438-.1523-.5156-.1523-.1533,0-.292.0464-.4141.1387s-.21.2207-.2617.3848c-.0781.25-.1172.5234-.1172.8203v2.1719h-.7031Z"/>
      <path class="st6" d="M276.2617,23.376v-4.1484h.6289v.582c.1299-.2031.3037-.3667.5195-.4902s.4619-.1855.7383-.1855c.3076,0,.5596.064.7559.1914s.335.3062.416.5352c.3281-.4844.7549-.7266,1.2812-.7266.4111,0,.7275.1138.9492.3418s.332.5786.332,1.0527v2.8477h-.6992v-2.6133c0-.2812-.0225-.4839-.0684-.6074s-.1279-.2231-.248-.2988-.2607-.1133-.4219-.1133c-.292,0-.5342.0972-.7266.291s-.2891.5044-.2891.9316v2.4102h-.7031v-2.6953c0-.3125-.0576-.5469-.1719-.7031s-.3018-.2344-.5625-.2344c-.1982,0-.3809.0522-.5488.1562s-.29.2563-.3652.457-.1133.4897-.1133.8672v2.1523h-.7031Z"/>
      <path class="st6" d="M282.6641,21.3018c0-.7681.2139-1.3374.6406-1.707.3564-.3071.792-.4609,1.3047-.4609.5703,0,1.0361.187,1.3984.5605s.543.8901.543,1.5488c0,.5337-.0801.9536-.2402,1.2598s-.3936.5435-.6992.7129-.6396.2539-1.002.2539c-.5811,0-1.0498-.186-1.4082-.5586s-.5371-.9087-.5371-1.6094ZM283.3867,21.3018c0,.5312.1162.9292.3477,1.1934s.5234.3965.875.3965c.3486,0,.6396-.1328.8711-.3984s.3477-.6704.3477-1.2148c0-.5132-.1162-.9019-.3496-1.166s-.5225-.3965-.8691-.3965c-.3516,0-.6436.1313-.875.3945s-.3477.6602-.3477,1.1914Z"/>
      <path class="st6" d="M290.0938,23.376v-.6094c-.3232.4688-.7617.7031-1.3164.7031-.2451,0-.4736-.0469-.6855-.1406s-.3701-.2114-.4727-.3535-.1748-.3159-.2168-.5215c-.0283-.1382-.043-.3569-.043-.6562v-2.5703h.7031v2.3008c0,.3672.0146.6147.043.7422.0439.1851.1377.3301.2812.4355s.3203.1582.5312.1582.4092-.0542.5938-.1621.3154-.2554.3926-.4414.1152-.4565.1152-.8105v-2.2227h.7031v4.1484h-.6289Z"/>
      <path class="st6" d="M291.543,22.1377l.6953-.1094c.0391.2788.1475.4922.3262.6406s.4277.2227.748.2227c.3232,0,.5625-.0659.7188-.1973s.2344-.2856.2344-.4629c0-.1587-.0693-.2837-.207-.375-.0967-.0625-.3359-.1421-.7188-.2383-.5156-.1304-.873-.2427-1.0723-.3379s-.3506-.2266-.4531-.3945-.1543-.3535-.1543-.5566c0-.1851.042-.356.127-.5137s.2002-.2886.3457-.3926c.1094-.0806.2588-.1489.4473-.2051s.3916-.084.6074-.084c.3252,0,.6113.0469.8574.1406s.4277.2207.5449.3809.1982.3745.2422.6426l-.6875.0938c-.0312-.2134-.1221-.3804-.2715-.5s-.3613-.1797-.6348-.1797c-.3232,0-.5537.0532-.6914.1602s-.207.2319-.207.375c0,.0913.0283.1733.0859.2461.0576.0757.1475.1382.2695.1875.0703.0259.2773.0859.6211.1797.4971.1328.8447.2417,1.041.3262s.3506.2075.4629.3691.168.3618.168.6016c0,.2344-.0684.4551-.2051.6621s-.334.3672-.5918.4805-.5498.1699-.875.1699c-.5391,0-.9502-.1118-1.2324-.3359s-.4629-.5562-.541-.9961Z"/>
      <path class="st6" d="M298.6641,22.04l.7266.0898c-.1143.4243-.3271.7539-.6367.9883s-.7061.3516-1.1875.3516c-.6064,0-1.0879-.187-1.4434-.5605s-.5332-.8979-.5332-1.5723c0-.6978.1797-1.2397.5391-1.625s.8252-.5781,1.3984-.5781c.5547,0,1.0078.189,1.3594.5664s.5273.9087.5273,1.5938c0,.0415-.001.104-.0039.1875h-3.0938c.0264.4556.1553.8047.3867,1.0469s.5205.3633.8672.3633c.2578,0,.4775-.0679.6602-.2031s.3271-.3516.4336-.6484ZM296.3555,20.9033h2.3164c-.0312-.3491-.1201-.6108-.2656-.7852-.2236-.271-.5146-.4062-.8711-.4062-.3232,0-.5947.1079-.8145.3242s-.3418.5054-.3652.8672Z"/>
      <path class="st6" d="M303.2617,23.376l-1.2695-4.1484h.7266l.6602,2.3945.2461.8906c.0107-.0444.082-.3296.2148-.8555l.6602-2.4297h.7227l.6211,2.4062.207.793.2383-.8008.7109-2.3984h.6836l-1.2969,4.1484h-.7305l-.6602-2.4844-.1602-.707-.8398,3.1914h-.7344Z"/>
      <path class="st6" d="M308.2734,23.376v-5.7266h.7031v2.0547c.3281-.3804.7422-.5703,1.2422-.5703.3076,0,.5742.0605.8008.1816s.3887.2886.4863.502.1465.5234.1465.9297v2.6289h-.7031v-2.6289c0-.3516-.0762-.6074-.2285-.7676s-.3682-.2402-.6465-.2402c-.208,0-.4043.0542-.5879.1621s-.3145.2544-.3926.4395-.1172.4399-.1172.7656v2.2695h-.7031Z"/>
      <path class="st6" d="M315.5625,22.04l.7266.0898c-.1143.4243-.3271.7539-.6367.9883s-.7061.3516-1.1875.3516c-.6064,0-1.0879-.187-1.4434-.5605s-.5332-.8979-.5332-1.5723c0-.6978.1797-1.2397.5391-1.625s.8252-.5781,1.3984-.5781c.5547,0,1.0078.189,1.3594.5664s.5273.9087.5273,1.5938c0,.0415-.001.104-.0039.1875h-3.0938c.0264.4556.1553.8047.3867,1.0469s.5205.3633.8672.3633c.2578,0,.4775-.0679.6602-.2031s.3271-.3516.4336-.6484ZM313.2539,20.9033h2.3164c-.0312-.3491-.1201-.6108-.2656-.7852-.2236-.271-.5146-.4062-.8711-.4062-.3232,0-.5947.1079-.8145.3242s-.3418.5054-.3652.8672Z"/>
      <path class="st6" d="M320.0117,22.04l.7266.0898c-.1143.4243-.3271.7539-.6367.9883s-.7061.3516-1.1875.3516c-.6064,0-1.0879-.187-1.4434-.5605s-.5332-.8979-.5332-1.5723c0-.6978.1797-1.2397.5391-1.625s.8252-.5781,1.3984-.5781c.5547,0,1.0078.189,1.3594.5664s.5273.9087.5273,1.5938c0,.0415-.001.104-.0039.1875h-3.0938c.0264.4556.1553.8047.3867,1.0469s.5205.3633.8672.3633c.2578,0,.4775-.0679.6602-.2031s.3271-.3516.4336-.6484ZM317.7031,20.9033h2.3164c-.0312-.3491-.1201-.6108-.2656-.7852-.2236-.271-.5146-.4062-.8711-.4062-.3232,0-.5947.1079-.8145.3242s-.3418.5054-.3652.8672Z"/>
      <path class="st6" d="M321.6055,23.376v-5.7266h.7031v5.7266h-.7031Z"/>
    </g>
    <g>
      <path class="st6" d="M164.8184,161.8408v-.7031l2.9336-3.668c.2085-.2607.4062-.4873.5938-.6797h-3.1953v-.6758h4.1016v.6758l-3.2148,3.9727-.3477.4023h3.6562v.6758h-4.5273Z"/>
      <path class="st6" d="M169.8105,159.7666c0-.7686.2134-1.3379.6406-1.707.3569-.3076.7915-.4609,1.3047-.4609.5703,0,1.0366.1865,1.3984.5605.3618.373.543.8896.543,1.5488,0,.5332-.0801.9531-.2402,1.2598-.1602.3057-.3931.543-.6992.7129-.3062.1689-.6401.2539-1.002.2539-.5806,0-1.0503-.1865-1.4082-.5586-.3579-.373-.5371-.9092-.5371-1.6094ZM170.5332,159.7666c0,.5312.1157.9287.3477,1.1934.2319.2637.5234.3965.875.3965.3491,0,.6392-.1328.8711-.3984s.3477-.6709.3477-1.2148c0-.5137-.1167-.9023-.3496-1.166-.2329-.2646-.5229-.3965-.8691-.3965-.3516,0-.6431.1309-.875.3945-.2319.2627-.3477.6602-.3477,1.1914Z"/>
      <path class="st6" d="M174.2598,159.7666c0-.7686.2134-1.3379.6406-1.707.3569-.3076.7915-.4609,1.3047-.4609.5703,0,1.0366.1865,1.3984.5605.3618.373.543.8896.543,1.5488,0,.5332-.0801.9531-.2402,1.2598-.1602.3057-.3931.543-.6992.7129-.3062.1689-.6401.2539-1.002.2539-.5806,0-1.0503-.1865-1.4082-.5586-.3579-.373-.5371-.9092-.5371-1.6094ZM174.9824,159.7666c0,.5312.1157.9287.3477,1.1934.2319.2637.5234.3965.875.3965.3491,0,.6392-.1328.8711-.3984s.3477-.6709.3477-1.2148c0-.5137-.1167-.9023-.3496-1.166-.2329-.2646-.5229-.3965-.8691-.3965-.3516,0-.6431.1309-.875.3945-.2319.2627-.3477.6602-.3477,1.1914Z"/>
      <path class="st6" d="M178.9707,161.8408v-4.1484h.6289v.582c.1304-.2031.3032-.3672.5195-.4902.2163-.124.4624-.1855.7383-.1855.3071,0,.5591.0635.7559.1914.1968.127.3354.3057.416.5352.3281-.4844.7554-.7266,1.2812-.7266.4116,0,.728.1133.9492.3418.2212.2275.332.5781.332,1.0527v2.8477h-.6992v-2.6133c0-.2812-.0229-.4844-.0684-.6074-.0454-.124-.1284-.2236-.248-.2988-.1196-.0762-.2603-.1133-.4219-.1133-.2915,0-.5337.0967-.7266.291-.1929.1934-.2891.5039-.2891.9316v2.4102h-.7031v-2.6953c0-.3125-.0571-.5469-.1719-.7031s-.3022-.2344-.5625-.2344c-.1978,0-.3809.0518-.5488.1562-.168.1035-.2896.2559-.3652.457-.0757.2002-.1133.4893-.1133.8672v2.1523h-.7031Z"/>
      <path class="st6" d="M187.8613,156.9229v-.8086h.7031v.8086h-.7031ZM187.8613,161.8408v-4.1484h.7031v4.1484h-.7031Z"/>
      <path class="st6" d="M189.6348,161.8408v-4.1484h.6328v.5898c.3047-.4561.7446-.6836,1.3203-.6836.25,0,.48.0449.6895.1348s.3667.207.4707.3535c.104.1455.1772.3184.2188.5195.0259.1299.0391.3574.0391.6836v2.5508h-.7031v-2.5234c0-.2871-.0273-.501-.082-.6426-.0547-.1426-.1519-.2559-.291-.3398-.1392-.085-.3027-.127-.4902-.127-.2993,0-.5581.0947-.7754.2852-.2173.1895-.3262.5508-.3262,1.082v2.2656h-.7031Z"/>
      <path class="st6" d="M197.8418,161.2119l.1016.6211c-.1978.041-.375.0625-.5312.0625-.2554,0-.4531-.041-.5938-.1211-.1406-.0811-.2397-.1875-.2969-.3184-.0571-.1318-.0859-.4082-.0859-.8301v-2.3867h-.5156v-.5469h.5156v-1.0273l.6992-.4219v1.4492h.707v.5469h-.707v2.4258c0,.2002.0122.3291.0371.3867.0249.0566.0649.1025.1211.1367.0562.0332.1362.0508.2402.0508.0781,0,.1812-.0098.3086-.0273Z"/>
      <path class="st6" d="M198.2676,159.7666c0-.7686.2134-1.3379.6406-1.707.3574-.3076.792-.4609,1.3047-.4609.5703,0,1.0371.1865,1.3984.5605.3623.373.543.8896.543,1.5488,0,.5332-.0801.9531-.2402,1.2598-.1602.3057-.3926.543-.6992.7129-.3057.1689-.6396.2539-1.002.2539-.5801,0-1.0498-.1865-1.4082-.5586-.3579-.373-.5371-.9092-.5371-1.6094ZM198.9902,159.7666c0,.5312.1162.9287.3477,1.1934.2324.2637.5234.3965.875.3965.3496,0,.6396-.1328.8711-.3984.2324-.2656.3477-.6709.3477-1.2148,0-.5137-.1162-.9023-.3496-1.166-.2324-.2646-.5225-.3965-.8691-.3965-.3516,0-.6426.1309-.875.3945-.2314.2627-.3477.6602-.3477,1.1914Z"/>
      <path class="st6" d="M207.8926,161.8408v-.5234c-.2627.4111-.6494.6172-1.1602.6172-.3301,0-.6348-.0918-.9121-.2734-.2773-.1826-.4922-.4375-.6445-.7637-.1523-.3271-.2285-.7031-.2285-1.127,0-.4141.0693-.79.207-1.127.1387-.3379.3457-.5957.6211-.7754.2764-.1797.585-.2695.9258-.2695.25,0,.4727.0527.668.1582s.3545.2422.4766.4121v-2.0547h.6992v5.7266h-.6523ZM205.6699,159.7705c0,.5312.1123.9277.3359,1.1914.2246.2627.4883.3945.793.3945.3076,0,.5684-.126.7832-.377.2148-.252.3223-.6348.3223-1.1504,0-.5684-.1094-.9844-.3281-1.25s-.4883-.3984-.8086-.3984c-.3125,0-.5732.127-.7832.3828-.209.2549-.3145.6572-.3145,1.207Z"/>
      <path class="st6" d="M209.6543,156.9229v-.8086h.7031v.8086h-.7031ZM209.6543,161.8408v-4.1484h.7031v4.1484h-.7031Z"/>
      <path class="st6" d="M211.1465,160.6025l.6953-.1094c.0391.2783.1475.4922.3262.6406s.4277.2227.748.2227c.3232,0,.5625-.0664.7188-.1973.1562-.1318.2344-.2861.2344-.4629,0-.1592-.0693-.2842-.207-.375-.0967-.0625-.3359-.1426-.7188-.2383-.5156-.1309-.873-.2432-1.0723-.3379-.1992-.0957-.3506-.2266-.4531-.3945s-.1543-.3535-.1543-.5566c0-.1855.042-.3564.127-.5137.085-.1582.2002-.2891.3457-.3926.1094-.0811.2588-.1494.4473-.2051.1885-.0566.3916-.084.6074-.084.3252,0,.6113.0469.8574.1406s.4277.2207.5449.3809.1982.374.2422.6426l-.6875.0938c-.0312-.2139-.1221-.3809-.2715-.5-.1494-.1201-.3613-.1797-.6348-.1797-.3232,0-.5537.0527-.6914.1602-.1377.1064-.207.2314-.207.375,0,.0908.0283.1729.0859.2461.0576.0752.1475.1377.2695.1875.0703.0254.2773.0859.6211.1797.4971.1328.8447.2412,1.041.3262.1963.084.3506.207.4629.3691.1123.1611.168.3613.168.6016,0,.2344-.0684.4551-.2051.6621s-.334.3672-.5918.4805-.5498.1699-.875.1699c-.5391,0-.9502-.1123-1.2324-.3359-.2822-.2246-.4629-.5566-.541-.9961Z"/>
      <path class="st6" d="M215.4277,161.8408v-4.1484h.6289v.582c.1299-.2031.3037-.3672.5195-.4902.2158-.124.4619-.1855.7383-.1855.3076,0,.5596.0635.7559.1914.1963.127.335.3057.416.5352.3281-.4844.7549-.7266,1.2812-.7266.4111,0,.7275.1133.9492.3418.2217.2275.332.5781.332,1.0527v2.8477h-.6992v-2.6133c0-.2812-.0225-.4844-.0684-.6074-.0459-.124-.1279-.2236-.248-.2988-.1201-.0762-.2607-.1133-.4219-.1133-.292,0-.5342.0967-.7266.291-.1924.1934-.2891.5039-.2891.9316v2.4102h-.7031v-2.6953c0-.3125-.0576-.5469-.1719-.7031s-.3018-.2344-.5625-.2344c-.1982,0-.3809.0518-.5488.1562-.168.1035-.29.2559-.3652.457-.0752.2002-.1133.4893-.1133.8672v2.1523h-.7031Z"/>
      <path class="st6" d="M222.0957,156.9229v-.8086h.7031v.8086h-.7031ZM222.0957,161.8408v-4.1484h.7031v4.1484h-.7031Z"/>
      <path class="st6" d="M223.5879,160.6025l.6953-.1094c.0391.2783.1475.4922.3262.6406s.4277.2227.748.2227c.3232,0,.5625-.0664.7188-.1973.1562-.1318.2344-.2861.2344-.4629,0-.1592-.0693-.2842-.207-.375-.0967-.0625-.3359-.1426-.7188-.2383-.5156-.1309-.873-.2432-1.0723-.3379-.1992-.0957-.3506-.2266-.4531-.3945s-.1543-.3535-.1543-.5566c0-.1855.042-.3564.127-.5137.085-.1582.2002-.2891.3457-.3926.1094-.0811.2588-.1494.4473-.2051.1885-.0566.3916-.084.6074-.084.3252,0,.6113.0469.8574.1406s.4277.2207.5449.3809.1982.374.2422.6426l-.6875.0938c-.0312-.2139-.1221-.3809-.2715-.5-.1494-.1201-.3613-.1797-.6348-.1797-.3232,0-.5537.0527-.6914.1602-.1377.1064-.207.2314-.207.375,0,.0908.0283.1729.0859.2461.0576.0752.1475.1377.2695.1875.0703.0254.2773.0859.6211.1797.4971.1328.8447.2412,1.041.3262.1963.084.3506.207.4629.3691.1123.1611.168.3613.168.6016,0,.2344-.0684.4551-.2051.6621s-.334.3672-.5918.4805-.5498.1699-.875.1699c-.5391,0-.9502-.1123-1.2324-.3359-.2822-.2246-.4629-.5566-.541-.9961Z"/>
      <path class="st6" d="M227.5879,160.6025l.6953-.1094c.0391.2783.1475.4922.3262.6406s.4277.2227.748.2227c.3232,0,.5625-.0664.7188-.1973.1562-.1318.2344-.2861.2344-.4629,0-.1592-.0693-.2842-.207-.375-.0967-.0625-.3359-.1426-.7188-.2383-.5156-.1309-.873-.2432-1.0723-.3379-.1992-.0957-.3506-.2266-.4531-.3945s-.1543-.3535-.1543-.5566c0-.1855.042-.3564.127-.5137.085-.1582.2002-.2891.3457-.3926.1094-.0811.2588-.1494.4473-.2051.1885-.0566.3916-.084.6074-.084.3252,0,.6113.0469.8574.1406s.4277.2207.5449.3809.1982.374.2422.6426l-.6875.0938c-.0312-.2139-.1221-.3809-.2715-.5-.1494-.1201-.3613-.1797-.6348-.1797-.3232,0-.5537.0527-.6914.1602-.1377.1064-.207.2314-.207.375,0,.0908.0283.1729.0859.2461.0576.0752.1475.1377.2695.1875.0703.0254.2773.0859.6211.1797.4971.1328.8447.2412,1.041.3262.1963.084.3506.207.4629.3691.1123.1611.168.3613.168.6016,0,.2344-.0684.4551-.2051.6621s-.334.3672-.5918.4805-.5498.1699-.875.1699c-.5391,0-.9502-.1123-1.2324-.3359-.2822-.2246-.4629-.5566-.541-.9961Z"/>
    </g>
  </g>
</svg>